# xmcd
#
# Track frame offsets:
#	150
#	13779
#	29408
#	45973
#	61335
#	73581
#	87448
#	102353
#	115894
#	132468
#	147407
#	163076
#
# Disc length: 2402 seconds
#
# Revision: 1
# Processed by: cddbd v1.5.1PL0 Copyright (c) Steve Scherf et al.
# Submitted via: audiograbber 1.82.01
#
DISCID=a809600c
DTITLE=Grupo Rodeio - Carreteadas
DYEAR=2000
DGENRE=Gaúcho
TTITLE0=Iguaria Campeira
TTITLE1=Gritos de Liberdade
TTITLE2=Saudade Carga Pesada
TTITLE3=Lavoura da Felicidade
TTITLE4=Essência Gaúcha
TTITLE5=Pensando
TTITLE6=Cavalgadas do Rio Grande
TTITLE7=Vida Guria
TTITLE8=Tropeiro
TTITLE9=Has Amado Una Mujer Deveras
TTITLE10=Natureza Onipotente
TTITLE11=Pelas Noites Carreteiras
EXTD=
EXTT0=
EXTT1=
EXTT2=
EXTT3=
EXTT4=
EXTT5=
EXTT6=
EXTT7=
EXTT8=
EXTT9=
EXTT10=
EXTT11=
PLAYORDER=
